<?xml version="1.0" encoding="UTF-8"?>
<!-- Generated by jsxcad -->
<!DOCTYPE svg PUBLIC "-//W3C//DTD SVG 1.1 Tiny//EN" "http://www.w3.org/Graphics/SVG/1.1/DTD/svg11-tiny.dtd">
<svg baseProfile="tiny" height="45.09375mm" width="39.00092mm" viewBox="-0.00092 6.09375 39.00092 45.09375" version="1.1" stroke="black" stroke-width=".1" fill="none" xmlns="http://www.w3.org/2000/svg">
<path fill="#000000" stroke="#000000" d="M-0.00092 24.87178 L0.31272 22.03761 L1.02367 19.31656 L2.15050 16.66400 L3.63774 14.23190 L5.46392 12.04239 L7.55924 10.16621 L9.96005 8.57871 L12.50296 7.38685 L15.26246 6.55657 L18.04325 6.14717 L20.92818 6.14717 L23.70897 6.55657 L26.46847 7.38685 L29.01138 8.57871 L31.41219 10.16621 L33.50750 12.04239 L35.33369 14.23190 L36.82093 16.66400 L37.94775 19.31656 L38.65871 22.03761 L38.97234 24.87178 L38.87003 27.71471 L38.34702 30.54360 L37.42634 33.23469 L36.12689 35.75846 L34.48674 38.05245 L32.49553 40.11941 L30.26053 41.84655 L27.74454 43.25846 L25.09960 44.26818 L22.32418 44.88606 L19.48571 45.09375 L16.64725 44.88606 L13.87183 44.26818 L11.22689 43.25846 L8.71090 41.84655 L6.47590 40.11941 L4.48469 38.05245 L2.84454 35.75846 L1.54509 33.23469 L0.62440 30.54360 L0.10140 27.71471 z M2.93987 26.04923 L3.38680 26.27168 L3.83533 26.45829 L4.28405 26.60579 L4.73136 26.70808 L5.17460 26.74619 L5.52527 26.71795 L5.70963 28.11909 L5.36359 28.18253 L4.94529 28.33400 L4.53967 28.54851 L4.14438 28.80707 L3.75939 29.10335 L3.38521 29.43385 L3.62086 30.31379 L4.11012 30.41306 L4.59165 30.47729 L5.06326 30.50370 L5.52180 30.48680 L5.95981 30.40896 L6.29125 30.29097 L6.83737 31.60849 L6.51965 31.75958 L6.15501 32.01444 L5.81898 32.32689 L5.50435 32.67919 L5.20947 33.06525 L4.93391 33.48155 L5.38989 34.27016 L5.88815 34.23903 L6.36985 34.17606 L6.83214 34.07915 L7.27058 33.94380 L7.67337 33.75492 L7.96282 33.55495 L8.82578 34.67800 L8.55801 34.90619 L8.27178 35.24676 L8.02810 35.63556 L7.81541 36.05731 L7.63053 36.50655 L7.47213 36.97999 L8.11674 37.62366 L8.58995 37.46459 L9.03893 37.27907 L9.46037 37.06577 L9.84882 36.82153 L10.18898 36.53481 L10.41678 36.26672 L11.52452 37.11665 L11.32454 37.40609 L11.13567 37.80889 L11.00032 38.24732 L10.90340 38.70962 L10.84044 39.19132 L10.80930 39.68958 L11.59792 40.14556 L12.01421 39.87000 L12.40027 39.57511 L12.75258 39.26048 L13.06503 38.92445 L13.31989 38.55981 L13.47097 38.24210 L14.78850 38.78822 L14.67051 39.11965 L14.59266 39.55766 L14.57576 40.01620 L14.60217 40.48781 L14.66640 40.96934 L14.76567 41.45861 L15.64562 41.69425 L15.97611 41.32007 L16.27239 40.93509 L16.53095 40.53979 L16.74547 40.13417 L16.89694 39.71588 L16.96037 39.36983 L18.36151 39.55419 L18.33327 39.90487 L18.37138 40.34811 L18.47367 40.79541 L18.62118 41.24414 L18.80779 41.69266 L19.03024 42.13960 L19.94119 42.13960 L20.16364 41.69266 L20.35025 41.24414 L20.49776 40.79541 L20.60005 40.34811 L20.63815 39.90487 L20.60992 39.55419 L22.01106 39.36983 L22.07449 39.71588 L22.22596 40.13417 L22.44048 40.53979 L22.69904 40.93509 L22.99532 41.32007 L23.32581 41.69425 L24.20576 41.45861 L24.30502 40.96934 L24.36926 40.48781 L24.39567 40.01620 L24.37877 39.55766 L24.30092 39.11965 L24.18293 38.78822 L25.50046 38.24210 L25.65154 38.55981 L25.90640 38.92445 L26.21885 39.26048 L26.57116 39.57511 L26.95722 39.87000 L27.37351 40.14556 L28.16213 39.68958 L28.13099 39.19132 L28.06803 38.70962 L27.97111 38.24732 L27.83576 37.80889 L27.64689 37.40609 L27.44691 37.11665 L28.56996 36.25369 L28.79815 36.52146 L29.13872 36.80768 L29.52752 37.05136 L29.94927 37.26406 L30.39851 37.44894 L30.87195 37.60733 L31.51563 36.96273 L31.35656 36.48951 L31.17103 36.04054 L30.95773 35.61909 L30.71349 35.23065 L30.42678 34.89049 L30.15868 34.66268 L31.00861 33.55495 L31.29806 33.75492 L31.70085 33.94380 L32.13928 34.07915 L32.60158 34.17606 L33.08328 34.23903 L33.58154 34.27016 L34.03752 33.48155 L33.76196 33.06525 L33.46708 32.67919 L33.15245 32.32689 L32.81642 32.01444 L32.45178 31.75958 L32.13406 31.60849 L32.68018 30.29097 L33.01162 30.40896 L33.44963 30.48680 L33.90817 30.50370 L34.37977 30.47729 L34.86131 30.41306 L35.35057 30.31379 L35.58622 29.43385 L35.21204 29.10335 L34.82705 28.80707 L34.43176 28.54851 L34.02614 28.33400 L33.60784 28.18253 L33.26180 28.11909 L33.44616 26.71795 L33.79683 26.74619 L34.24007 26.70808 L34.68738 26.60579 L35.13610 26.45829 L35.58463 26.27168 L36.03156 26.04923 L36.03156 25.13827 L35.58463 24.91582 L35.13610 24.72921 L34.68738 24.58171 L34.24007 24.47942 L33.79683 24.44131 L33.44616 24.46955 L33.26180 23.06841 L33.60784 23.00497 L34.02614 22.85350 L34.43176 22.63899 L34.82705 22.38043 L35.21204 22.08415 L35.58622 21.75365 L35.35057 20.87371 L34.86131 20.77444 L34.37977 20.71021 L33.90817 20.68380 L33.44963 20.70070 L33.01162 20.77854 L32.68018 20.89653 L32.13406 19.57901 L32.45178 19.42792 L32.81642 19.17306 L33.15245 18.86061 L33.46708 18.50831 L33.76196 18.12225 L34.03752 17.70595 L33.58154 16.91734 L33.08328 16.94847 L32.60158 17.01144 L32.13928 17.10835 L31.70085 17.24370 L31.29806 17.43258 L31.00861 17.63255 L30.14565 16.50950 L30.41342 16.28131 L30.69965 15.94074 L30.94333 15.55194 L31.15602 15.13019 L31.34090 14.68095 L31.49929 14.20751 L30.85469 13.56384 L30.38148 13.72291 L29.93250 13.90843 L29.51106 14.12173 L29.12261 14.36597 L28.78245 14.65269 L28.55465 14.92078 L27.44691 14.07085 L27.64689 13.78141 L27.83576 13.37861 L27.97111 12.94018 L28.06803 12.47788 L28.13099 11.99618 L28.16213 11.49792 L27.37351 11.04194 L26.95722 11.31750 L26.57116 11.61239 L26.21885 11.92702 L25.90640 12.26305 L25.65154 12.62769 L25.50046 12.94540 L24.18293 12.39928 L24.30092 12.06785 L24.37877 11.62984 L24.39567 11.17130 L24.36926 10.69969 L24.30502 10.21816 L24.20576 9.72889 L23.32581 9.49325 L22.99532 9.86743 L22.69904 10.25241 L22.44048 10.64771 L22.22596 11.05333 L22.07449 11.47162 L22.01106 11.81767 L20.60992 11.63331 L20.63815 11.28263 L20.60005 10.83939 L20.49776 10.39209 L20.35025 9.94336 L20.16364 9.49484 L19.94119 9.04790 L19.03024 9.04790 L18.80779 9.49484 L18.62118 9.94336 L18.47367 10.39209 L18.37138 10.83939 L18.33327 11.28263 L18.36151 11.63331 L16.96037 11.81767 L16.89694 11.47162 L16.74547 11.05333 L16.53095 10.64771 L16.27239 10.25241 L15.97611 9.86743 L15.64562 9.49325 L14.76567 9.72889 L14.66640 10.21816 L14.60217 10.69969 L14.57576 11.17130 L14.59266 11.62984 L14.67051 12.06785 L14.78850 12.39928 L13.47097 12.94540 L13.31989 12.62769 L13.06503 12.26305 L12.75258 11.92702 L12.40027 11.61239 L12.01421 11.31750 L11.59792 11.04194 L10.80930 11.49792 L10.84044 11.99618 L10.90340 12.47788 L11.00032 12.94018 L11.13567 13.37861 L11.32454 13.78141 L11.52452 14.07085 L10.40147 14.93381 L10.17328 14.66604 L9.83271 14.37982 L9.44391 14.13614 L9.02216 13.92344 L8.57292 13.73856 L8.09948 13.58017 L7.45580 14.22477 L7.61487 14.69799 L7.80040 15.14696 L8.01369 15.56841 L8.25794 15.95685 L8.54465 16.29701 L8.81275 16.52482 L7.96282 17.63255 L7.67337 17.43258 L7.27058 17.24370 L6.83214 17.10835 L6.36985 17.01144 L5.88815 16.94847 L5.38989 16.91734 L4.93391 17.70595 L5.20947 18.12225 L5.50435 18.50831 L5.81898 18.86061 L6.15501 19.17306 L6.51965 19.42792 L6.83737 19.57901 L6.29125 20.89653 L5.95981 20.77854 L5.52180 20.70070 L5.06326 20.68380 L4.59165 20.71021 L4.11012 20.77444 L3.62086 20.87371 L3.38521 21.75365 L3.75939 22.08415 L4.14438 22.38043 L4.53967 22.63899 L4.94529 22.85350 L5.36359 23.00497 L5.70963 23.06841 L5.52527 24.46955 L5.17460 24.44131 L4.73136 24.47942 L4.28405 24.58171 L3.83533 24.72921 L3.38680 24.91582 L2.93987 25.13827 z"/>
<path fill="#000000" stroke="#000000" d="M33.26180 28.11909 L33.60784 28.18253 L34.02614 28.33400 L34.43176 28.54851 L34.82705 28.80707 L35.21204 29.10335 L35.58622 29.43385 L35.35057 30.31379 L34.86131 30.41306 L34.37977 30.47729 L33.90817 30.50370 L33.44963 30.48680 L33.01162 30.40896 L32.68018 30.29097 L32.13406 31.60849 L32.45178 31.75958 L32.81642 32.01444 L33.15245 32.32689 L33.46708 32.67919 L33.76196 33.06525 L34.03752 33.48155 L33.58154 34.27016 L33.08328 34.23903 L32.60158 34.17606 L32.13928 34.07915 L31.70085 33.94380 L31.29806 33.75492 L31.00861 33.55495 L30.15868 34.66268 L30.42678 34.89049 L30.71349 35.23065 L30.95773 35.61909 L31.17103 36.04054 L31.35656 36.48951 L31.51563 36.96273 L30.87195 37.60733 L30.39851 37.44894 L29.94927 37.26406 L29.52752 37.05136 L29.13872 36.80768 L28.79815 36.52146 L28.56996 36.25369 L27.44691 37.11665 L27.64689 37.40609 L27.83576 37.80889 L27.97111 38.24732 L28.06803 38.70962 L28.13099 39.19132 L28.16213 39.68958 L27.37351 40.14556 L26.95722 39.87000 L26.57116 39.57511 L26.21885 39.26048 L25.90640 38.92445 L25.65154 38.55981 L25.50046 38.24210 L24.18293 38.78822 L24.30092 39.11965 L24.37877 39.55766 L24.39567 40.01620 L24.36926 40.48781 L24.30502 40.96934 L24.20576 41.45861 L23.32581 41.69425 L22.99532 41.32007 L22.69904 40.93509 L22.44048 40.53979 L22.22596 40.13417 L22.07449 39.71588 L22.01106 39.36983 L20.60992 39.55419 L20.63815 39.90487 L20.60005 40.34811 L20.49776 40.79541 L20.35025 41.24414 L20.16364 41.69266 L19.94119 42.13960 L19.03024 42.13960 L18.80779 41.69266 L18.62118 41.24414 L18.47367 40.79541 L18.37138 40.34811 L18.33327 39.90487 L18.36151 39.55419 L16.96037 39.36983 L16.89694 39.71588 L16.74547 40.13417 L16.53095 40.53979 L16.27239 40.93509 L15.97611 41.32007 L15.64562 41.69425 L14.76567 41.45861 L14.66640 40.96934 L14.60217 40.48781 L14.57576 40.01620 L14.59266 39.55766 L14.67051 39.11965 L14.78850 38.78822 L13.47097 38.24210 L13.31989 38.55981 L13.06503 38.92445 L12.75258 39.26048 L12.40027 39.57511 L12.01421 39.87000 L11.59792 40.14556 L10.80930 39.68958 L10.84044 39.19132 L10.90340 38.70962 L11.00032 38.24732 L11.13567 37.80889 L11.32454 37.40609 L11.52452 37.11665 L10.41678 36.26672 L10.18898 36.53481 L9.84882 36.82153 L9.46037 37.06577 L9.03893 37.27907 L8.58995 37.46459 L8.11674 37.62366 L7.47213 36.97999 L7.63053 36.50655 L7.81541 36.05731 L8.02810 35.63556 L8.27178 35.24676 L8.55801 34.90619 L8.82578 34.67800 L7.96282 33.55495 L7.67337 33.75492 L7.27058 33.94380 L6.83214 34.07915 L6.36985 34.17606 L5.88815 34.23903 L5.38989 34.27016 L4.93391 33.48155 L5.20947 33.06525 L5.50435 32.67919 L5.81898 32.32689 L6.15501 32.01444 L6.51965 31.75958 L6.83737 31.60849 L6.29125 30.29097 L5.95981 30.40896 L5.52180 30.48680 L5.06326 30.50370 L4.59165 30.47729 L4.11012 30.41306 L3.62086 30.31379 L3.38521 29.43385 L3.75939 29.10335 L4.14438 28.80707 L4.53967 28.54851 L4.94529 28.33400 L5.36359 28.18253 L5.70963 28.11909 L5.52527 26.71795 L5.17460 26.74619 L4.73136 26.70808 L4.28405 26.60579 L3.83533 26.45829 L3.38680 26.27168 L2.93987 26.04923 L2.93987 25.13827 L3.38680 24.91582 L3.83533 24.72921 L4.28405 24.58171 L4.73136 24.47942 L5.17460 24.44131 L5.52527 24.46955 L5.70963 23.06841 L5.36359 23.00497 L4.94529 22.85350 L4.53967 22.63899 L4.14438 22.38043 L3.75939 22.08415 L3.38521 21.75365 L3.62086 20.87371 L4.11012 20.77444 L4.59165 20.71021 L5.06326 20.68380 L5.52180 20.70070 L5.95981 20.77854 L6.29125 20.89653 L6.83737 19.57901 L6.51965 19.42792 L6.15501 19.17306 L5.81898 18.86061 L5.50435 18.50831 L5.20947 18.12225 L4.93391 17.70595 L5.38989 16.91734 L5.88815 16.94847 L6.36985 17.01144 L6.83214 17.10835 L7.27058 17.24370 L7.67337 17.43258 L7.96282 17.63255 L8.81275 16.52482 L8.54465 16.29701 L8.25794 15.95685 L8.01369 15.56841 L7.80040 15.14696 L7.61487 14.69799 L7.45580 14.22477 L8.09948 13.58017 L8.57292 13.73856 L9.02216 13.92344 L9.44391 14.13614 L9.83271 14.37982 L10.17328 14.66604 L10.40147 14.93381 L11.52452 14.07085 L11.32454 13.78141 L11.13567 13.37861 L11.00032 12.94018 L10.90340 12.47788 L10.84044 11.99618 L10.80930 11.49792 L11.59792 11.04194 L12.01421 11.31750 L12.40027 11.61239 L12.75258 11.92702 L13.06503 12.26305 L13.31989 12.62769 L13.47097 12.94540 L14.78850 12.39928 L14.67051 12.06785 L14.59266 11.62984 L14.57576 11.17130 L14.60217 10.69969 L14.66640 10.21816 L14.76567 9.72889 L15.64562 9.49325 L15.97611 9.86743 L16.27239 10.25241 L16.53095 10.64771 L16.74547 11.05333 L16.89694 11.47162 L16.96037 11.81767 L18.36151 11.63331 L18.33327 11.28263 L18.37138 10.83939 L18.47367 10.39209 L18.62118 9.94336 L18.80779 9.49484 L19.03024 9.04790 L19.94119 9.04790 L20.16364 9.49484 L20.35025 9.94336 L20.49776 10.39209 L20.60005 10.83939 L20.63815 11.28263 L20.60992 11.63331 L22.01106 11.81767 L22.07449 11.47162 L22.22596 11.05333 L22.44048 10.64771 L22.69904 10.25241 L22.99532 9.86743 L23.32581 9.49325 L24.20576 9.72889 L24.30502 10.21816 L24.36926 10.69969 L24.39567 11.17130 L24.37877 11.62984 L24.30092 12.06785 L24.18293 12.39928 L25.50046 12.94540 L25.65154 12.62769 L25.90640 12.26305 L26.21885 11.92702 L26.57116 11.61239 L26.95722 11.31750 L27.37351 11.04194 L28.16213 11.49792 L28.13099 11.99618 L28.06803 12.47788 L27.97111 12.94018 L27.83576 13.37861 L27.64689 13.78141 L27.44691 14.07085 L28.55465 14.92078 L28.78245 14.65269 L29.12261 14.36597 L29.51106 14.12173 L29.93250 13.90843 L30.38148 13.72291 L30.85469 13.56384 L31.49929 14.20751 L31.34090 14.68095 L31.15602 15.13019 L30.94333 15.55194 L30.69965 15.94074 L30.41342 16.28131 L30.14565 16.50950 L31.00861 17.63255 L31.29806 17.43258 L31.70085 17.24370 L32.13928 17.10835 L32.60158 17.01144 L33.08328 16.94847 L33.58154 16.91734 L34.03752 17.70595 L33.76196 18.12225 L33.46708 18.50831 L33.15245 18.86061 L32.81642 19.17306 L32.45178 19.42792 L32.13406 19.57901 L32.68018 20.89653 L33.01162 20.77854 L33.44963 20.70070 L33.90817 20.68380 L34.37977 20.71021 L34.86131 20.77444 L35.35057 20.87371 L35.58622 21.75365 L35.21204 22.08415 L34.82705 22.38043 L34.43176 22.63899 L34.02614 22.85350 L33.60784 23.00497 L33.26180 23.06841 L33.44616 24.46955 L33.79683 24.44131 L34.24007 24.47942 L34.68738 24.58171 L35.13610 24.72921 L35.58463 24.91582 L36.03156 25.13827 L36.03156 26.04923 L35.58463 26.27168 L35.13610 26.45829 L34.68738 26.60579 L34.24007 26.70808 L33.79683 26.74619 L33.44616 26.71795 z M23.73571 25.59375 L23.52896 24.28429 L22.92673 23.09937 L21.98010 22.15274 L20.79517 21.55051 L19.48571 21.34375 L18.17625 21.55051 L16.99133 22.15274 L16.04470 23.09937 L15.44247 24.28429 L15.23571 25.59375 L15.44247 26.90321 L16.04470 28.08813 L16.99133 29.03476 L18.17625 29.63699 L19.48571 29.84375 L20.79517 29.63699 L21.98010 29.03476 L22.92673 28.08813 L23.52896 26.90321 z"/>
<path fill="#000000" stroke="#000000" d="M23.52896 26.90321 L22.92673 28.08813 L21.98010 29.03476 L20.79517 29.63699 L19.48571 29.84375 L18.17625 29.63699 L16.99133 29.03476 L16.04470 28.08813 L15.44247 26.90321 L15.23571 25.59375 L15.44247 24.28429 L16.04470 23.09937 L16.99133 22.15274 L18.17625 21.55051 L19.48571 21.34375 L20.79517 21.55051 L21.98010 22.15274 L22.92673 23.09937 L23.52896 24.28429 L23.73571 25.59375 z"/>
<path stroke="#000000" d="M 0.00000 6.09375 L 39.00000 6.09375 L 39.00000 45.09375 L 0.00000 45.09375 z"/>
<path stroke="#000000" d="M 0.87054 51.18750 L 2.78571 51.18750 L 1.74107 49.79464 L 2.26339 49.79464 L 2.61161 49.62054 L 2.78571 49.44643 L 2.95982 48.92411 L 2.95982 48.57589 L 2.78571 48.05357 L 2.43750 47.70536 L 1.91518 47.53125 L 1.39286 47.53125 L 0.87054 47.70536 L 0.69643 47.87946 L 0.52232 48.22768"/>
<path stroke="#000000" d="M 4.87500 51.18750 L 4.35268 51.01339 L 4.17857 50.66518 L 4.17857 50.31696 L 4.35268 49.96875 L 4.70089 49.79464 L 5.39732 49.62054 L 5.91964 49.44643 L 6.26786 49.09821 L 6.44196 48.75000 L 6.44196 48.22768 L 6.26786 47.87946 L 6.09375 47.70536 L 5.57143 47.53125 L 4.87500 47.53125 L 4.35268 47.70536 L 4.17857 47.87946 L 4.00446 48.22768 L 4.00446 48.75000 L 4.17857 49.09821 L 4.52679 49.44643 L 5.04911 49.62054 L 5.74554 49.79464 L 6.09375 49.96875 L 6.26786 50.31696 L 6.26786 50.66518 L 6.09375 51.01339 L 5.57143 51.18750 z"/>
<path stroke="#000000" d="M 7.83482 47.87946 L 7.66071 47.70536 L 7.83482 47.53125 L 8.00893 47.70536 z"/>
<path stroke="#000000" d="M 11.49107 49.96875 L 11.31696 49.44643 L 10.96875 49.09821 L 10.44643 48.92411 L 10.27232 48.92411 L 9.75000 49.09821 L 9.40179 49.44643 L 9.22768 49.96875 L 9.22768 50.14286 L 9.40179 50.66518 L 9.75000 51.01339 L 10.27232 51.18750 L 10.44643 51.18750 L 10.96875 51.01339 L 11.31696 50.66518 L 11.49107 49.96875 L 11.49107 49.09821 L 11.31696 48.22768 L 10.96875 47.70536 L 10.44643 47.53125 L 10.09821 47.53125 L 9.57589 47.70536 L 9.40179 48.05357"/>
<path stroke="#000000" d="M 15.14732 51.18750 L 13.40625 47.53125 M 12.70982 51.18750 z"/>
<path stroke="#000000" d=""/>
<path stroke="#000000" d="M 18.97768 49.96875 L 20.89286 47.53125 M 20.89286 49.96875 L 18.97768 47.53125"/>
<path stroke="#000000" d=""/>
<path stroke="#000000" d="M 25.07143 51.18750 L 26.98661 51.18750 L 25.94196 49.79464 L 26.46429 49.79464 L 26.81250 49.62054 L 26.98661 49.44643 L 27.16071 48.92411 L 27.16071 48.57589 L 26.98661 48.05357 L 26.63839 47.70536 L 26.11607 47.53125 L 25.59375 47.53125 L 25.07143 47.70536 L 24.89732 47.87946 L 24.72321 48.22768"/>
<path stroke="#000000" d="M 30.46875 49.96875 L 30.29464 49.44643 L 29.94643 49.09821 L 29.42411 48.92411 L 29.25000 48.92411 L 28.72768 49.09821 L 28.37946 49.44643 L 28.20536 49.96875 L 28.20536 50.14286 L 28.37946 50.66518 L 28.72768 51.01339 L 29.25000 51.18750 L 29.42411 51.18750 L 29.94643 51.01339 L 30.29464 50.66518 L 30.46875 49.96875 L 30.46875 49.09821 L 30.29464 48.22768 L 29.94643 47.70536 L 29.42411 47.53125 L 29.07589 47.53125 L 28.55357 47.70536 L 28.37946 48.05357"/>
</svg>