<?xml version="1.0" encoding="UTF-8"?>
<!-- Generated by jsxcad -->
<!DOCTYPE svg PUBLIC "-//W3C//DTD SVG 1.1 Tiny//EN" "http://www.w3.org/Graphics/SVG/1.1/DTD/svg11-tiny.dtd">
<svg baseProfile="tiny" height="41.62500mm" width="36.00087mm" viewBox="-0.00087 5.62500 36.00087 41.62500" version="1.1" stroke="black" stroke-width=".1" fill="none" xmlns="http://www.w3.org/2000/svg">
<path fill="#000000" stroke="#000000" d="M-0.00087 24.33061 L0.07353 22.34627 L0.42708 22.55022 L0.81656 22.74483 L1.20910 22.90867 L1.60417 23.03669 L2.00155 23.11477 L2.00152 23.11571 L2.00155 24.13523 L1.60417 24.21331 L1.20910 24.34133 L0.81656 24.50517 L0.42708 24.69978 L0.06610 24.90802 z"/>
<path fill="#000000" stroke="#000000" d="M0.10246 21.57455 L0.58863 19.06563 L0.92150 19.35033 L1.26871 19.61303 L1.62457 19.84605 L1.98948 20.04430 L2.36582 20.19389 L2.36562 20.19481 L2.18267 21.17195 L1.77770 21.17523 L1.36578 21.22801 L0.94972 21.31648 L0.53098 21.43574 L0.11066 21.58316 L0.09641 21.73608 z"/>
<path fill="#000000" stroke="#000000" d="M0.15595 25.68273 L0.53098 25.81426 L0.94972 25.93352 L1.36578 26.02199 L1.77770 26.07477 L2.18267 26.07805 L2.18281 26.07898 L2.36582 27.05611 L1.98948 27.20570 L1.62457 27.40395 L1.26871 27.63697 L0.92150 27.89967 L0.61834 28.15895 L0.31509 27.05483 z"/>
<path fill="#000000" stroke="#000000" d="M0.63092 18.84738 L0.69228 18.67685 L0.60355 18.98861 z"/>
<path fill="#000000" stroke="#000000" d="M0.82578 28.91422 L1.22789 28.97622 L1.66140 29.01672 L2.08663 29.02743 L2.50125 29.00382 L2.89995 28.93282 L2.90027 28.93371 L3.26287 29.86927 L2.92045 30.08549 L2.59821 30.34746 L2.29126 30.64193 L1.99826 30.96398 L1.74783 31.27472 L1.04217 29.70206 z"/>
<path fill="#000000" stroke="#000000" d="M0.81438 18.33754 L1.56578 16.24939 L1.72820 15.95093 L1.99826 16.28602 L2.29126 16.60807 L2.59821 16.90254 L2.92045 17.16451 L3.26287 17.38073 L3.26251 17.38160 L2.89995 18.31718 L2.50125 18.24618 L2.08663 18.22257 L1.66140 18.23328 L1.22789 18.27378 z"/>
<path fill="#000000" stroke="#000000" d="M2.06416 31.97968 L2.49736 31.96586 L2.93092 31.92596 L3.35087 31.85831 L3.75408 31.75888 L4.13294 31.61579 L4.13341 31.61661 L4.66973 32.48143 L4.37315 32.75719 L4.10484 33.07417 L3.85757 33.42028 L3.62910 33.79092 L3.42917 34.16347 L2.18168 32.24161 z"/>
<path fill="#000000" stroke="#000000" d="M2.09800 15.27140 L2.87556 13.84258 L3.43852 13.10396 L3.62910 13.45908 L3.85757 13.82972 L4.10484 14.17583 L4.37315 14.49281 L4.66973 14.76857 L4.66921 14.76936 L4.13294 15.63421 L3.75408 15.49112 L3.35087 15.39169 L2.93092 15.32404 L2.49736 15.28414 z"/>
<path fill="#000000" stroke="#000000" d="M3.58413 34.40221 L3.78786 34.67132 L3.68101 34.55145 z"/>
<path fill="#000000" stroke="#000000" d="M3.91394 12.48022 L4.54767 11.64876 L5.61289 10.62395 L5.73337 11.00215 L5.89010 11.40835 L6.06982 11.79388 L6.27554 12.15464 L6.51662 12.48005 L6.51596 12.48072 L5.84745 13.21283 L5.50155 13.00222 L5.12364 12.83001 L4.72342 12.68595 L4.30469 12.56665 z"/>
<path fill="#000000" stroke="#000000" d="M4.30469 34.68335 L4.72342 34.56405 L5.12364 34.41999 L5.50155 34.24778 L5.84745 34.03717 L5.84807 34.03789 L6.51662 34.76995 L6.27554 35.09536 L6.06982 35.45612 L5.89010 35.84165 L5.73337 36.24785 L5.59845 36.67140 L5.49297 36.58424 L3.88193 34.77686 z"/>
<path fill="#000000" stroke="#000000" d="M6.53742 9.73449 L8.21866 8.55189 L8.26921 8.96063 L8.34841 9.38876 L8.45400 9.80080 L8.58973 10.19329 L8.76671 10.55755 L8.76594 10.55809 L7.95930 11.16627 L7.65782 10.89588 L7.31783 10.65738 L6.95076 10.44247 L6.56095 10.24851 L6.17404 10.08409 z"/>
<path fill="#000000" stroke="#000000" d="M6.56095 37.00149 L6.95076 36.80753 L7.31783 36.59262 L7.65782 36.35412 L7.95930 36.08373 L7.96004 36.08432 L8.76671 36.69245 L8.58973 37.05671 L8.45400 37.44920 L8.34841 37.86124 L8.26921 38.28937 L8.21883 38.69676 L7.61340 38.33635 L6.18915 37.15949 z"/>
<path fill="#000000" stroke="#000000" d="M8.78134 8.15609 L11.15483 6.98148 L11.12741 7.42576 L11.12664 7.86115 L11.15477 8.28558 L11.21611 8.69632 L11.32319 9.08688 L11.32233 9.08728 L10.42678 9.53211 L10.18029 9.21080 L9.89007 8.91374 L9.56888 8.63486 L9.22149 8.37240 L8.85068 8.12563 L8.63695 8.25765 z"/>
<path fill="#000000" stroke="#000000" d="M9.22149 38.87760 L9.56888 38.61514 L9.89007 38.33626 L10.18029 38.03920 L10.42678 37.71789 L10.42762 37.71833 L11.32319 38.16312 L11.21611 38.55368 L11.15477 38.96442 L11.12664 39.38885 L11.12741 39.82424 L11.15192 40.22148 L9.99731 39.75547 L8.89151 39.09720 z"/>
<path fill="#000000" stroke="#000000" d="M11.26915 6.92490 L11.44166 6.87039 L11.15742 6.98019 z"/>
<path fill="#000000" stroke="#000000" d="M11.87473 6.73354 L13.88602 6.09799 L14.29536 6.03474 L14.19220 6.44773 L14.11215 6.87570 L14.06252 7.29816 L14.04803 7.71320 L14.08220 8.11673 L14.08128 8.11696 L13.14334 8.38374 L12.96004 8.02262 L12.72931 7.67732 L12.46480 7.34421 L12.17152 7.02241 z"/>
<path fill="#000000" stroke="#000000" d="M12.17152 40.22759 L12.46480 39.90579 L12.72931 39.57268 L12.96004 39.22738 L13.14334 38.86626 L13.14424 38.86655 L14.08220 39.13327 L14.04803 39.53680 L14.06252 39.95184 L14.11215 40.37430 L14.19220 40.80227 L14.28955 41.19201 L12.53857 40.78114 L11.87709 40.51416 z"/>
<path fill="#000000" stroke="#000000" d="M15.03830 41.36770 L15.29231 41.00872 L15.52208 40.63890 L15.72151 40.26318 L15.88549 39.88164 L15.99996 39.49317 L16.00090 39.49329 L17.00967 39.58710 L17.05053 39.99001 L17.14132 40.39526 L17.26802 40.80131 L17.42564 41.20717 L17.60394 41.59567 L15.23235 41.41324 z"/>
<path fill="#000000" stroke="#000000" d="M15.06231 5.91622 L16.60272 5.67818 L17.59300 5.67818 L17.42564 6.04283 L17.26802 6.44869 L17.14132 6.85474 L17.05053 7.25999 L17.00967 7.66290 L17.00873 7.66296 L15.99996 7.75683 L15.88549 7.36836 L15.72151 6.98682 L15.52208 6.61110 L15.29231 6.24128 z"/>
<path fill="#000000" stroke="#000000" d="M17.81616 41.61199 L18.15443 41.61199 L17.98529 41.62500 z"/>
<path fill="#000000" stroke="#000000" d="M18.37759 5.67818 L19.36786 5.67818 L20.90828 5.91622 L20.67828 6.24128 L20.44851 6.61110 L20.24908 6.98682 L20.08510 7.36836 L19.97063 7.75683 L19.96969 7.75671 L18.96092 7.66290 L18.92006 7.25999 L18.82927 6.85474 L18.70257 6.44869 L18.54495 6.04283 z"/>
<path fill="#000000" stroke="#000000" d="M18.54495 41.20717 L18.70257 40.80131 L18.82927 40.39526 L18.92006 39.99001 L18.96092 39.58710 L18.96186 39.58704 L19.97063 39.49317 L20.08510 39.88164 L20.24908 40.26318 L20.44851 40.63890 L20.67828 41.00872 L20.93228 41.36770 L20.73824 41.41324 L18.36665 41.59567 z"/>
<path fill="#000000" stroke="#000000" d="M21.67523 6.03474 L22.08456 6.09799 L24.09586 6.73354 L23.79907 7.02241 L23.50579 7.34421 L23.24127 7.67732 L23.01055 8.02262 L22.82725 8.38374 L22.82635 8.38345 L21.88839 8.11673 L21.92256 7.71320 L21.90807 7.29816 L21.85844 6.87570 L21.77838 6.44773 z"/>
<path fill="#000000" stroke="#000000" d="M21.77838 40.80227 L21.85844 40.37430 L21.90807 39.95184 L21.92256 39.53680 L21.88839 39.13327 L21.88931 39.13304 L22.82725 38.86626 L23.01055 39.22738 L23.24127 39.57268 L23.50579 39.90579 L23.79907 40.22759 L24.09350 40.51416 L23.43202 40.78114 L21.68104 41.19201 z"/>
<path fill="#000000" stroke="#000000" d="M24.64826 38.16272 L25.54380 37.71789 L25.79030 38.03920 L26.08052 38.33626 L26.40170 38.61514 L26.74909 38.87760 L27.07908 39.09720 L25.97328 39.75547 L24.81867 40.22148 L24.84318 39.82424 L24.84395 39.38885 L24.81582 38.96442 L24.75448 38.55368 L24.64740 38.16312 z"/>
<path fill="#000000" stroke="#000000" d="M24.70144 6.92490 L24.81317 6.98019 L24.52893 6.87039 z"/>
<path fill="#000000" stroke="#000000" d="M24.75448 8.69632 L24.81582 8.28558 L24.84395 7.86115 L24.84318 7.42576 L24.81576 6.98148 L27.18925 8.15609 L27.33364 8.25765 L27.11991 8.12563 L26.74909 8.37240 L26.40170 8.63486 L26.08052 8.91374 L25.79030 9.21080 L25.54380 9.53211 L25.54297 9.53167 L24.64740 9.08688 z"/>
<path fill="#000000" stroke="#000000" d="M27.20465 36.69191 L28.01129 36.08373 L28.31277 36.35412 L28.65276 36.59262 L29.01983 36.80753 L29.40964 37.00149 L29.78144 37.15949 L28.35719 38.33635 L27.75176 38.69676 L27.70137 38.28937 L27.62218 37.86124 L27.51658 37.44920 L27.38086 37.05671 L27.20387 36.69245 z"/>
<path fill="#000000" stroke="#000000" d="M27.38086 10.19329 L27.51658 9.80080 L27.62218 9.38876 L27.70137 8.96063 L27.75193 8.55189 L29.43317 9.73449 L29.79655 10.08409 L29.40964 10.24851 L29.01983 10.44247 L28.65276 10.65738 L28.31277 10.89588 L28.01129 11.16627 L28.01055 11.16568 L27.20387 10.55755 z"/>
<path fill="#000000" stroke="#000000" d="M29.45463 34.76928 L30.12314 34.03717 L30.46904 34.24778 L30.84695 34.41999 L31.24717 34.56405 L31.66590 34.68335 L32.08866 34.77686 L30.47762 36.58424 L30.37214 36.67140 L30.23722 36.24785 L30.08049 35.84165 L29.90077 35.45612 L29.69504 35.09536 L29.45397 34.76995 z"/>
<path fill="#000000" stroke="#000000" d="M29.69504 12.15464 L29.90077 11.79388 L30.08049 11.40835 L30.23722 11.00215 L30.35769 10.62395 L31.42292 11.64876 L32.05665 12.48022 L31.66590 12.56665 L31.24717 12.68595 L30.84695 12.83001 L30.46904 13.00222 L30.12314 13.21283 L30.12252 13.21211 L29.45397 12.48005 z"/>
<path fill="#000000" stroke="#000000" d="M31.30138 32.48064 L31.83765 31.61579 L32.21651 31.75888 L32.61972 31.85831 L33.03967 31.92596 L33.47323 31.96586 L33.90643 31.97968 L33.78890 32.24161 L32.54142 34.16347 L32.34148 33.79092 L32.11302 33.42028 L31.86575 33.07417 L31.59744 32.75719 L31.30085 32.48143 z"/>
<path fill="#000000" stroke="#000000" d="M31.59744 14.49281 L31.86575 14.17583 L32.11302 13.82972 L32.34148 13.45908 L32.53206 13.10396 L33.09503 13.84258 L33.87259 15.27140 L33.47323 15.28414 L33.03967 15.32404 L32.61972 15.39169 L32.21651 15.49112 L31.83765 15.63421 L31.83718 15.63339 L31.30085 14.76857 z"/>
<path fill="#000000" stroke="#000000" d="M32.18273 34.67132 L32.38646 34.40221 L32.28958 34.55145 z"/>
<path fill="#000000" stroke="#000000" d="M32.70808 29.86840 L33.07064 28.93282 L33.46934 29.00382 L33.88396 29.02743 L34.30919 29.01672 L34.74269 28.97622 L35.14480 28.91422 L34.92841 29.70206 L34.22275 31.27472 L33.97233 30.96398 L33.67933 30.64193 L33.37238 30.34746 L33.05013 30.08549 L32.70771 29.86927 z"/>
<path fill="#000000" stroke="#000000" d="M33.05013 17.16451 L33.37238 16.90254 L33.67933 16.60807 L33.97233 16.28602 L34.24238 15.95093 L34.40481 16.24939 L35.15621 18.33754 L34.74269 18.27378 L34.30919 18.23328 L33.88396 18.22257 L33.46934 18.24618 L33.07064 18.31718 L33.07032 18.31629 L32.70771 17.38073 z"/>
<path fill="#000000" stroke="#000000" d="M33.60497 27.05519 L33.78792 26.07805 L34.19288 26.07477 L34.60481 26.02199 L35.02087 25.93352 L35.43961 25.81426 L35.81464 25.68273 L35.65550 27.05483 L35.35224 28.15895 L35.04909 27.89967 L34.70188 27.63697 L34.34602 27.40395 L33.98111 27.20570 L33.60477 27.05611 z"/>
<path fill="#000000" stroke="#000000" d="M33.60477 20.19389 L33.98111 20.04430 L34.34602 19.84605 L34.70188 19.61303 L35.04909 19.35033 L35.38196 19.06563 L35.86813 21.57455 L35.87418 21.73608 L35.85993 21.58316 L35.43961 21.43574 L35.02087 21.31648 L34.60481 21.22801 L34.19288 21.17523 L33.78792 21.17195 L33.78778 21.17102 z"/>
<path fill="#000000" stroke="#000000" d="M33.96904 23.11477 L34.36642 23.03669 L34.76149 22.90867 L35.15403 22.74483 L35.54351 22.55022 L35.89706 22.34627 L35.97146 24.33061 L35.90449 24.90802 L35.54351 24.69978 L35.15403 24.50517 L34.76149 24.34133 L34.36642 24.21331 L33.96904 24.13523 L33.96907 24.13429 z"/>
<path fill="#000000" stroke="#000000" d="M35.33967 18.84738 L35.36704 18.98861 L35.27831 18.67685 z"/>
<path fill="#000000" stroke="#000000" d="M33.60477 27.05611 L33.98111 27.20570 L34.34602 27.40395 L34.70188 27.63697 L35.04909 27.89967 L35.38759 28.18918 L35.18291 28.90834 L34.74269 28.97622 L34.30919 29.01672 L33.88396 29.02743 L33.46934 29.00382 L33.07064 28.93282 L32.70808 29.86840 L32.70771 29.86927 L33.05013 30.08549 L33.37238 30.34746 L33.67933 30.64193 L33.97233 30.96398 L34.25183 31.31079 L33.91842 31.98006 L33.47323 31.96586 L33.03967 31.92596 L32.61972 31.85831 L32.21651 31.75888 L31.83765 31.61579 L31.30138 32.48064 L31.30085 32.48143 L31.59744 32.75719 L31.86575 33.07417 L32.11302 33.42028 L32.34148 33.79092 L32.55211 34.18339 L32.10080 34.77955 L31.66590 34.68335 L31.24717 34.56405 L30.84695 34.41999 L30.46904 34.24778 L30.12314 34.03717 L29.45463 34.76928 L29.45397 34.76995 L29.69504 35.09536 L29.90077 35.45612 L30.08049 35.84165 L30.23722 36.24785 L30.37241 36.67226 L29.81957 37.17570 L29.40964 37.00149 L29.01983 36.80753 L28.65276 36.59262 L28.31277 36.35412 L28.01129 36.08373 L27.20465 36.69191 L27.20387 36.69245 L27.38086 37.05671 L27.51658 37.44920 L27.62218 37.86124 L27.70137 38.28937 L27.75605 38.73142 L27.11991 39.12437 L26.74909 38.87760 L26.40170 38.61514 L26.08052 38.33626 L25.79030 38.03920 L25.54380 37.71789 L24.64826 38.16272 L24.64740 38.16312 L24.75448 38.55368 L24.81582 38.96442 L24.84395 39.38885 L24.84318 39.82424 L24.81575 40.26881 L24.11826 40.53826 L23.79907 40.22759 L23.50579 39.90579 L23.24127 39.57268 L23.01055 39.22738 L22.82725 38.86626 L21.88931 39.13304 L21.88839 39.13327 L21.92256 39.53680 L21.90807 39.95184 L21.85844 40.37430 L21.77838 40.80227 L21.67045 41.23441 L20.93556 41.37232 L20.67828 41.00872 L20.44851 40.63890 L20.24908 40.26318 L20.08510 39.88164 L19.97063 39.49317 L18.96186 39.58704 L18.96092 39.58710 L18.92006 39.99001 L18.82927 40.39526 L18.70257 40.80131 L18.54495 41.20717 L18.35915 41.61199 L17.61143 41.61199 L17.42564 41.20717 L17.26802 40.80131 L17.14132 40.39526 L17.05053 39.99001 L17.00967 39.58710 L16.00090 39.49329 L15.99996 39.49317 L15.88549 39.88164 L15.72151 40.26318 L15.52208 40.63890 L15.29231 41.00872 L15.03503 41.37232 L14.30014 41.23441 L14.19220 40.80227 L14.11215 40.37430 L14.06252 39.95184 L14.04803 39.53680 L14.08220 39.13327 L13.14424 38.86655 L13.14334 38.86626 L12.96004 39.22738 L12.72931 39.57268 L12.46480 39.90579 L12.17152 40.22759 L11.85233 40.53826 L11.15484 40.26881 L11.12741 39.82424 L11.12664 39.38885 L11.15477 38.96442 L11.21611 38.55368 L11.32319 38.16312 L10.42762 37.71833 L10.42678 37.71789 L10.18029 38.03920 L9.89007 38.33626 L9.56888 38.61514 L9.22149 38.87760 L8.85068 39.12437 L8.21454 38.73142 L8.26921 38.28937 L8.34841 37.86124 L8.45400 37.44920 L8.58973 37.05671 L8.76671 36.69245 L7.96004 36.08432 L7.95930 36.08373 L7.65782 36.35412 L7.31783 36.59262 L6.95076 36.80753 L6.56095 37.00149 L6.15102 37.17570 L5.59818 36.67226 L5.73337 36.24785 L5.89010 35.84165 L6.06982 35.45612 L6.27554 35.09536 L6.51662 34.76995 L5.84807 34.03789 L5.84745 34.03717 L5.50155 34.24778 L5.12364 34.41999 L4.72342 34.56405 L4.30469 34.68335 L3.86979 34.77955 L3.41848 34.18339 L3.62910 33.79092 L3.85757 33.42028 L4.10484 33.07417 L4.37315 32.75719 L4.66973 32.48143 L4.13341 31.61661 L4.13294 31.61579 L3.75408 31.75888 L3.35087 31.85831 L2.93092 31.92596 L2.49736 31.96586 L2.05217 31.98006 L1.71876 31.31079 L1.99826 30.96398 L2.29126 30.64193 L2.59821 30.34746 L2.92045 30.08549 L3.26287 29.86927 L2.90027 28.93371 L2.89995 28.93282 L2.50125 29.00382 L2.08663 29.02743 L1.66140 29.01672 L1.22789 28.97622 L0.78768 28.90834 L0.58300 28.18918 L0.92150 27.89967 L1.26871 27.63697 L1.62457 27.40395 L1.98948 27.20570 L2.36582 27.05611 L2.18281 26.07898 L2.18267 26.07805 L1.77770 26.07477 L1.36578 26.02199 L0.94972 25.93352 L0.53098 25.81426 L0.11066 25.66684 L0.04126 24.92235 L0.42708 24.69978 L0.81656 24.50517 L1.20910 24.34133 L1.60417 24.21331 L2.00155 24.13523 L2.00152 23.11571 L2.00155 23.11477 L1.60417 23.03669 L1.20910 22.90867 L0.81656 22.74483 L0.42708 22.55022 L0.04126 22.32765 L0.11066 21.58316 L0.53098 21.43574 L0.94972 21.31648 L1.36578 21.22801 L1.77770 21.17523 L2.18267 21.17195 L2.36562 20.19481 L2.36582 20.19389 L1.98948 20.04430 L1.62457 19.84605 L1.26871 19.61303 L0.92150 19.35033 L0.58300 19.06082 L0.78768 18.34166 L1.22789 18.27378 L1.66140 18.23328 L2.08663 18.22257 L2.50125 18.24618 L2.89995 18.31718 L3.26251 17.38160 L3.26287 17.38073 L2.92045 17.16451 L2.59821 16.90254 L2.29126 16.60807 L1.99826 16.28602 L1.71876 15.93921 L2.05217 15.26994 L2.49736 15.28414 L2.93092 15.32404 L3.35087 15.39169 L3.75408 15.49112 L4.13294 15.63421 L4.66921 14.76936 L4.66973 14.76857 L4.37315 14.49281 L4.10484 14.17583 L3.85757 13.82972 L3.62910 13.45908 L3.41848 13.06661 L3.86979 12.47045 L4.30469 12.56665 L4.72342 12.68595 L5.12364 12.83001 L5.50155 13.00222 L5.84745 13.21283 L6.51596 12.48072 L6.51662 12.48005 L6.27554 12.15464 L6.06982 11.79388 L5.89010 11.40835 L5.73337 11.00215 L5.59818 10.57774 L6.15102 10.07430 L6.56095 10.24851 L6.95076 10.44247 L7.31783 10.65738 L7.65782 10.89588 L7.95930 11.16627 L8.76594 10.55809 L8.76671 10.55755 L8.58973 10.19329 L8.45400 9.80080 L8.34841 9.38876 L8.26921 8.96063 L8.21454 8.51858 L8.85068 8.12563 L9.22149 8.37240 L9.56888 8.63486 L9.89007 8.91374 L10.18029 9.21080 L10.42678 9.53211 L11.32233 9.08728 L11.32319 9.08688 L11.21611 8.69632 L11.15477 8.28558 L11.12664 7.86115 L11.12741 7.42576 L11.15484 6.98119 L11.85233 6.71174 L12.17152 7.02241 L12.46480 7.34421 L12.72931 7.67732 L12.96004 8.02262 L13.14334 8.38374 L14.08128 8.11696 L14.08220 8.11673 L14.04803 7.71320 L14.06252 7.29816 L14.11215 6.87570 L14.19220 6.44773 L14.30014 6.01559 L15.03503 5.87768 L15.29231 6.24128 L15.52208 6.61110 L15.72151 6.98682 L15.88549 7.36836 L15.99996 7.75683 L17.00873 7.66296 L17.00967 7.66290 L17.05053 7.25999 L17.14132 6.85474 L17.26802 6.44869 L17.42564 6.04283 L17.61143 5.63801 L18.35915 5.63801 L18.54495 6.04283 L18.70257 6.44869 L18.82927 6.85474 L18.92006 7.25999 L18.96092 7.66290 L19.96969 7.75671 L19.97063 7.75683 L20.08510 7.36836 L20.24908 6.98682 L20.44851 6.61110 L20.67828 6.24128 L20.93556 5.87768 L21.67045 6.01559 L21.77838 6.44773 L21.85844 6.87570 L21.90807 7.29816 L21.92256 7.71320 L21.88839 8.11673 L22.82635 8.38345 L22.82725 8.38374 L23.01055 8.02262 L23.24127 7.67732 L23.50579 7.34421 L23.79907 7.02241 L24.11826 6.71174 L24.81575 6.98119 L24.84318 7.42576 L24.84395 7.86115 L24.81582 8.28558 L24.75448 8.69632 L24.64740 9.08688 L25.54297 9.53167 L25.54380 9.53211 L25.79030 9.21080 L26.08052 8.91374 L26.40170 8.63486 L26.74909 8.37240 L27.11991 8.12563 L27.75605 8.51858 L27.70137 8.96063 L27.62218 9.38876 L27.51658 9.80080 L27.38086 10.19329 L27.20387 10.55755 L28.01055 11.16568 L28.01129 11.16627 L28.31277 10.89588 L28.65276 10.65738 L29.01983 10.44247 L29.40964 10.24851 L29.81957 10.07430 L30.37241 10.57774 L30.23722 11.00215 L30.08049 11.40835 L29.90077 11.79388 L29.69504 12.15464 L29.45397 12.48005 L30.12252 13.21211 L30.12314 13.21283 L30.46904 13.00222 L30.84695 12.83001 L31.24717 12.68595 L31.66590 12.56665 L32.10080 12.47045 L32.55211 13.06661 L32.34148 13.45908 L32.11302 13.82972 L31.86575 14.17583 L31.59744 14.49281 L31.30085 14.76857 L31.83718 15.63339 L31.83765 15.63421 L32.21651 15.49112 L32.61972 15.39169 L33.03967 15.32404 L33.47323 15.28414 L33.91842 15.26994 L34.25183 15.93921 L33.97233 16.28602 L33.67933 16.60807 L33.37238 16.90254 L33.05013 17.16451 L32.70771 17.38073 L33.07032 18.31629 L33.07064 18.31718 L33.46934 18.24618 L33.88396 18.22257 L34.30919 18.23328 L34.74269 18.27378 L35.18291 18.34166 L35.38759 19.06082 L35.04909 19.35033 L34.70188 19.61303 L34.34602 19.84605 L33.98111 20.04430 L33.60477 20.19389 L33.78778 21.17102 L33.78792 21.17195 L34.19288 21.17523 L34.60481 21.22801 L35.02087 21.31648 L35.43961 21.43574 L35.85993 21.58316 L35.92933 22.32765 L35.54351 22.55022 L35.15403 22.74483 L34.76149 22.90867 L34.36642 23.03669 L33.96904 23.11477 L33.96907 24.13429 L33.96904 24.13523 L34.36642 24.21331 L34.76149 24.34133 L35.15403 24.50517 L35.54351 24.69978 L35.92933 24.92235 L35.85993 25.66684 L35.43961 25.81426 L35.02087 25.93352 L34.60481 26.02199 L34.19288 26.07477 L33.78792 26.07805 L33.60497 27.05519 z M22.23529 23.62500 L22.02854 22.31554 L21.42631 21.13062 L20.47968 20.18399 L19.29475 19.58176 L17.98529 19.37500 L16.67583 19.58176 L15.49091 20.18399 L14.54428 21.13062 L13.94205 22.31554 L13.73529 23.62500 L13.94205 24.93446 L14.54428 26.11938 L15.49091 27.06601 L16.67583 27.66824 L17.98529 27.87500 L19.29475 27.66824 L20.47968 27.06601 L21.42631 26.11938 L22.02854 24.93446 z"/>
<path fill="#000000" stroke="#000000" d="M22.02854 24.93446 L21.42631 26.11938 L20.47968 27.06601 L19.29475 27.66824 L17.98529 27.87500 L16.67583 27.66824 L15.49091 27.06601 L14.54428 26.11938 L13.94205 24.93446 L13.73529 23.62500 L13.94205 22.31554 L14.54428 21.13062 L15.49091 20.18399 L16.67583 19.58176 L17.98529 19.37500 L19.29475 19.58176 L20.47968 20.18399 L21.42631 21.13062 L22.02854 22.31554 L22.23529 23.62500 z"/>
<path stroke="#000000" d="M 0.00000 5.62500 L 36.00000 5.62500 L 36.00000 41.62500 L 0.00000 41.62500 z"/>
<path stroke="#000000" d="M 0.80357 47.25000 L 2.57143 47.25000 L 1.60714 45.96429 L 2.08929 45.96429 L 2.41071 45.80357 L 2.57143 45.64286 L 2.73214 45.16071 L 2.73214 44.83929 L 2.57143 44.35714 L 2.25000 44.03571 L 1.76786 43.87500 L 1.28571 43.87500 L 0.80357 44.03571 L 0.64286 44.19643 L 0.48214 44.51786"/>
<path stroke="#000000" d="M 5.62500 47.25000 L 4.01786 47.25000 L 3.85714 45.80357 L 4.01786 45.96429 L 4.50000 46.12500 L 4.98214 46.12500 L 5.46429 45.96429 L 5.78571 45.64286 L 5.94643 45.16071 L 5.94643 44.83929 L 5.78571 44.35714 L 5.46429 44.03571 L 4.98214 43.87500 L 4.50000 43.87500 L 4.01786 44.03571 L 3.85714 44.19643 L 3.69643 44.51786"/>
<path stroke="#000000" d="M 7.23214 44.19643 L 7.07143 44.03571 L 7.23214 43.87500 L 7.39286 44.03571 z"/>
<path stroke="#000000" d="M 10.60714 46.12500 L 10.44643 45.64286 L 10.12500 45.32143 L 9.64286 45.16071 L 9.48214 45.16071 L 9.00000 45.32143 L 8.67857 45.64286 L 8.51786 46.12500 L 8.51786 46.28571 L 8.67857 46.76786 L 9.00000 47.08929 L 9.48214 47.25000 L 9.64286 47.25000 L 10.12500 47.08929 L 10.44643 46.76786 L 10.60714 46.12500 L 10.60714 45.32143 L 10.44643 44.51786 L 10.12500 44.03571 L 9.64286 43.87500 L 9.32143 43.87500 L 8.83929 44.03571 L 8.67857 44.35714"/>
<path stroke="#000000" d="M 13.98214 47.25000 L 12.37500 43.87500 M 11.73214 47.25000 z"/>
<path stroke="#000000" d=""/>
<path stroke="#000000" d="M 17.51786 46.12500 L 19.28571 43.87500 M 19.28571 46.12500 L 17.51786 43.87500"/>
<path stroke="#000000" d=""/>
<path stroke="#000000" d="M 23.14286 47.25000 L 24.91071 47.25000 L 23.94643 45.96429 L 24.42857 45.96429 L 24.75000 45.80357 L 24.91071 45.64286 L 25.07143 45.16071 L 25.07143 44.83929 L 24.91071 44.35714 L 24.58929 44.03571 L 24.10714 43.87500 L 23.62500 43.87500 L 23.14286 44.03571 L 22.98214 44.19643 L 22.82143 44.51786"/>
<path stroke="#000000" d="M 28.12500 46.76786 L 27.96429 47.08929 L 27.48214 47.25000 L 27.16071 47.25000 L 26.67857 47.08929 L 26.35714 46.60714 L 26.19643 45.80357 L 26.19643 45.00000 L 26.35714 44.35714 L 26.67857 44.03571 L 27.16071 43.87500 L 27.32143 43.87500 L 27.80357 44.03571 L 28.12500 44.35714 L 28.28571 44.83929 L 28.28571 45.00000 L 28.12500 45.48214 L 27.80357 45.80357 L 27.32143 45.96429 L 27.16071 45.96429 L 26.67857 45.80357 L 26.35714 45.48214 L 26.19643 45.00000"/>
</svg>